# xmcd
#
# Track frame offsets:
#	150
#	21123
#	38302
#	61699
#	86279
#	106004
#	122088
#	140265
#	164904
#	188676
#	213254
#	236893
#
# Disc length: 3443 seconds
#
# Revision: 2
# Processed by: cddbd v1.5PL3 Copyright (c) Steve Scherf et al.
# Submitted via: MusicWizard 6.0.2
#
DISCID=920d710c
DTITLE=Joe - Everything
DYEAR=1900
DGENRE=R&B
TTITLE0=The One For Me
TTITLE1=I'm In Luv
TTITLE2=All Or Nothing
TTITLE3=It's Alright
TTITLE4=If Loving you Is Wrong
TTITLE5=What's On Your Mind
TTITLE6=Finally Back
TTITLE7=Get A Little Closer
TTITLE8=I Can Do It Right
TTITLE9=Everything
TTITLE10=Baby Don't Stop
TTITLE11=Do Me
EXTD=
EXTT0=
EXTT1=
EXTT2=
EXTT3=
EXTT4=
EXTT5=
EXTT6=
EXTT7=
EXTT8=
EXTT9=
EXTT10=
EXTT11=
PLAYORDER=
